<svg width="1200" height="160" viewBox="0 0 1200 160" fill="none" xmlns="http://www.w3.org/2000/svg">
<rect width="1200" height="160" rx="20" fill="#E8F0FF"/>
<g clip-path="url(#clip0_2417_4)">
<path d="M54.504 85.064H44.296V102H35.538V61.516H44.296V77.93H54.504V61.516H63.262V102H54.504V85.064ZM82.4373 102.696C80.1173 102.696 78.0293 102.348 76.1733 101.652C74.3173 100.917 72.732 99.8733 71.4173 98.52C70.1413 97.1667 69.1553 95.5233 68.4593 93.59C67.7633 91.6567 67.4153 89.472 67.4153 87.036C67.4153 84.6 67.7633 82.4153 68.4593 80.482C69.1553 78.5487 70.1413 76.9053 71.4173 75.552C72.732 74.1987 74.3173 73.174 76.1733 72.478C78.0293 71.7433 80.1173 71.376 82.4373 71.376C84.7573 71.376 86.8453 71.7433 88.7013 72.478C90.5573 73.174 92.1233 74.1987 93.3993 75.552C94.714 76.9053 95.7193 78.5487 96.4153 80.482C97.1113 82.4153 97.4593 84.6 97.4593 87.036C97.4593 89.472 97.1113 91.6567 96.4153 93.59C95.7193 95.5233 94.714 97.1667 93.3993 98.52C92.1233 99.8733 90.5573 100.917 88.7013 101.652C86.8453 102.348 84.7573 102.696 82.4373 102.696ZM82.4373 96.316C84.3707 96.316 85.8787 95.7167 86.9613 94.518C88.044 93.3193 88.5853 91.618 88.5853 89.414V84.658C88.5853 82.454 88.044 80.7527 86.9613 79.554C85.8787 78.3553 84.3707 77.756 82.4373 77.756C80.504 77.756 78.996 78.3553 77.9133 79.554C76.8307 80.7527 76.2893 82.454 76.2893 84.658V89.414C76.2893 91.618 76.8307 93.3193 77.9133 94.518C78.996 95.7167 80.504 96.316 82.4373 96.316ZM98.4807 72.072H105.615L107.761 96.316H108.341L111.879 72.072H119.419L122.899 96.316H123.479L125.683 72.072H132.469L128.931 102H118.723L115.765 81.352H115.185L112.227 102H102.019L98.4807 72.072ZM183.869 102C180.776 102 178.475 101.188 176.967 99.564C175.459 97.94 174.705 95.8713 174.705 93.358V78.742H166.585V72.072H171.863C173.139 72.072 174.048 71.8207 174.589 71.318C175.131 70.8153 175.401 69.8873 175.401 68.534V61.516H183.289V72.072H194.947V78.742H183.289V95.33H194.947V102H183.869ZM214.587 102.696C212.267 102.696 210.179 102.348 208.323 101.652C206.467 100.917 204.881 99.8733 203.567 98.52C202.291 97.1667 201.305 95.5233 200.609 93.59C199.913 91.6567 199.565 89.472 199.565 87.036C199.565 84.6 199.913 82.4153 200.609 80.482C201.305 78.5487 202.291 76.9053 203.567 75.552C204.881 74.1987 206.467 73.174 208.323 72.478C210.179 71.7433 212.267 71.376 214.587 71.376C216.907 71.376 218.995 71.7433 220.851 72.478C222.707 73.174 224.273 74.1987 225.549 75.552C226.863 76.9053 227.869 78.5487 228.565 80.482C229.261 82.4153 229.609 84.6 229.609 87.036C229.609 89.472 229.261 91.6567 228.565 93.59C227.869 95.5233 226.863 97.1667 225.549 98.52C224.273 99.8733 222.707 100.917 220.851 101.652C218.995 102.348 216.907 102.696 214.587 102.696ZM214.587 96.316C216.52 96.316 218.028 95.7167 219.111 94.518C220.193 93.3193 220.735 91.618 220.735 89.414V84.658C220.735 82.454 220.193 80.7527 219.111 79.554C218.028 78.3553 216.52 77.756 214.587 77.756C212.653 77.756 211.145 78.3553 210.063 79.554C208.98 80.7527 208.439 82.454 208.439 84.658V89.414C208.439 91.618 208.98 93.3193 210.063 94.518C211.145 95.7167 212.653 96.316 214.587 96.316ZM285.707 96.548H285.359C284.702 98.2493 283.658 99.6993 282.227 100.898C280.835 102.097 278.941 102.696 276.543 102.696C275.113 102.696 273.798 102.464 272.599 102C271.401 101.497 270.376 100.763 269.525 99.796C268.675 98.8293 267.998 97.65 267.495 96.258C267.031 94.866 266.799 93.2613 266.799 91.444V72.072H275.383V90.284C275.383 94.1507 277.065 96.084 280.429 96.084C281.087 96.084 281.725 96.0067 282.343 95.852C283.001 95.6587 283.561 95.388 284.025 95.04C284.528 94.6533 284.934 94.1893 285.243 93.648C285.553 93.1067 285.707 92.4687 285.707 91.734V72.072H294.291V102H285.707V96.548ZM313.351 102.696C310.025 102.696 307.125 102.193 304.651 101.188C302.215 100.183 300.378 98.81 299.141 97.07L303.955 92.604C305.115 93.88 306.468 94.8853 308.015 95.62C309.6 96.316 311.398 96.664 313.409 96.664C315.11 96.664 316.444 96.4127 317.411 95.91C318.377 95.3687 318.861 94.5567 318.861 93.474C318.861 92.6233 318.532 92.0433 317.875 91.734C317.217 91.386 316.309 91.1153 315.149 90.922L310.335 90.168C308.981 89.9747 307.725 89.6847 306.565 89.298C305.405 88.8727 304.399 88.312 303.549 87.616C302.698 86.92 302.021 86.0693 301.519 85.064C301.016 84.0587 300.765 82.8407 300.765 81.41C300.765 78.278 301.963 75.8227 304.361 74.044C306.758 72.2653 310.122 71.376 314.453 71.376C317.391 71.376 319.885 71.782 321.935 72.594C324.023 73.3673 325.685 74.4887 326.923 75.958L322.631 80.83C321.741 79.8633 320.601 79.0513 319.209 78.394C317.817 77.7367 316.135 77.408 314.163 77.408C310.837 77.408 309.175 78.4133 309.175 80.424C309.175 81.3133 309.503 81.932 310.161 82.28C310.818 82.5893 311.727 82.8407 312.887 83.034L317.643 83.788C318.996 83.9813 320.253 84.2907 321.413 84.716C322.573 85.1027 323.578 85.644 324.429 86.34C325.318 87.036 326.014 87.8867 326.517 88.892C327.019 89.8973 327.271 91.1153 327.271 92.546C327.271 95.678 326.053 98.1527 323.617 99.97C321.219 101.787 317.797 102.696 313.351 102.696ZM347.548 102.696C342.521 102.696 338.713 101.304 336.122 98.52C333.531 95.736 332.236 91.9467 332.236 87.152C332.236 84.716 332.565 82.5313 333.222 80.598C333.918 78.626 334.885 76.9633 336.122 75.61C337.398 74.218 338.925 73.174 340.704 72.478C342.521 71.7433 344.551 71.376 346.794 71.376C349.037 71.376 351.047 71.7433 352.826 72.478C354.605 73.174 356.113 74.1793 357.35 75.494C358.587 76.8087 359.535 78.4133 360.192 80.308C360.888 82.164 361.236 84.252 361.236 86.572V89.124H340.762V89.646C340.762 91.5793 341.361 93.1453 342.56 94.344C343.759 95.504 345.518 96.084 347.838 96.084C349.617 96.084 351.144 95.7553 352.42 95.098C353.696 94.402 354.798 93.4933 355.726 92.372L360.366 97.418C359.206 98.8487 357.582 100.086 355.494 101.13C353.406 102.174 350.757 102.696 347.548 102.696ZM346.852 77.524C344.996 77.524 343.507 78.104 342.386 79.264C341.303 80.3853 340.762 81.9127 340.762 83.846V84.31H352.826V83.846C352.826 81.874 352.285 80.3273 351.202 79.206C350.158 78.0847 348.708 77.524 346.852 77.524Z" fill="#1A2945"/>
</g>
<path d="M1112.5 72.5L1125 102.5L1129.5 89.5L1142.5 85L1112.5 72.5Z" stroke="#183E78" stroke-width="4.25" stroke-linecap="round" stroke-linejoin="round"/>
<path d="M1108 55.5L1110 62.75" stroke="#183E78" stroke-width="4.25" stroke-linecap="round" stroke-linejoin="round"/>
<path d="M1102.75 70L1095.5 68" stroke="#183E78" stroke-width="4.25" stroke-linecap="round" stroke-linejoin="round"/>
<path d="M1125 60.25L1120 65" stroke="#183E78" stroke-width="4.25" stroke-linecap="round" stroke-linejoin="round"/>
<path d="M1105 80L1100.25 85" stroke="#183E78" stroke-width="4.25" stroke-linecap="round" stroke-linejoin="round"/>
<defs>
<clipPath id="clip0_2417_4">
<rect width="333" height="64" fill="white" transform="translate(32 48)"/>
</clipPath>
</defs>
</svg>
